FFmpeg version SVN-r25716, Copyright (c) 2000-2010 the FFmpeg developers  built on Nov 10 2010 12:23:18 with gcc 4.1.2 20080704 (Red Hat 4.1.2-48)  configuration: --enable-libmp3lame --enable-shared --disable-mmx --arch=x86_64  libavutil     50.33. 0 / 50.33. 0  libavcore      0.12. 1 /  0.12. 1  libavcodec    52.94. 4 / 52.94. 4  libavformat   52.84. 0 / 52.84. 0  libavdevice   52. 2. 2 / 52. 2. 2  libavfilter    1.59. 0 /  1.59. 0  libswscale     0.12. 0 /  0.12. 0[mov,mp4,m4a,3gp,3g2,mj2 @ 0x6964c0] max_analyze_duration reachedSeems stream 0 codec frame rate differs from container frame rate: 600.00 (600/1) -> 5.00 (5/1)Input #0, mov,mp4,m4a,3gp,3g2,mj2, from '/RAID10/data/converted_video_files/23601.mov':  Metadata:    major_brand     : qt      minor_version   : 537199360    compatible_brands: qt    Duration: 00:00:06.00, bitrate: 347 kb/s    Stream #0.0(eng): Video: svq1, yuv410p, 129x132, 346 kb/s, 5 fps, 5 tbr, 600 tbn, 600 tbc[buffer @ 0x69b530] w:129 h:132 pixfmt:yuv410p[ffsink @ 0x69b7a0] auto-inserting filter 'auto-inserted scaler 0' between the filter 'src' and the filter 'out'[scale @ 0x69bac0] w:129 h:132 fmt:yuv410p -> w:129 h:132 fmt:yuv420p flags:0x4Output #0, flv, to '/RAID10/data/converted_video_files/23601.flv':  Metadata:    encoder         : Lavf52.84.0    Stream #0.0(eng): Video: flv, yuv420p, 129x132, q=2-31, 600 kb/s, 1k tbn, 24 tbcStream mapping:  Stream #0.0 -> #0.0Press [q] to stop encodingframe=   30 fps=  0 q=2.1 Lsize=     190kB time=5.83 bitrate= 266.2kbits/s    video:189kB audio:0kB global headers:0kB muxing overhead 0.356678%